P2
#File created by pgma_write_test.c
10 11
53
 45 33 34 34 34 34 33 33 34 10
 34 34 34 34 34 34 33 33 29 33
 33 33 34 34 34 53 34 34 33 33
 33 33 33 33 33 33 33 33 33 33
 33 33 33 33 33 33 33 33 34 34
 34 34 33 33 12 33 33 15 33 33
 33 33 33 33 33 33 33 33 34 34
 34 34 33 33 33 33 34 34 34 34
 34 34 34 34 34 34 34 34 34 34
 34 11 34 34 34 34 33 33 15 32
 34 34 33 33 33 33 33 33 33 18

 

